<svg xmlns="http://www.w3.org/2000/svg" xmlns:xlink="http://www.w3.org/1999/xlink" viewBox="0 0 399.35 326.69"><defs><style>.cls-1{isolation:isolate;}.cls-2{fill:url(#linear-gradient);}.cls-3,.cls-4{mix-blend-mode:multiply;}.cls-3{fill:url(#linear-gradient-2);}.cls-4{fill:url(#linear-gradient-3);}.cls-5{fill:#231f20;}.cls-6{fill:#414042;}</style><linearGradient id="linear-gradient" x1="158.57" y1="120.47" x2="228.54" y2="120.47" gradientUnits="userSpaceOnUse"><stop offset="0" stop-color="#f05330"/><stop offset="1" stop-color="#a22a59"/></linearGradient><linearGradient id="linear-gradient-2" x1="182.25" y1="132.63" x2="182.31" y2="132.63" gradientUnits="userSpaceOnUse"><stop offset="0" stop-color="#6a3c00" stop-opacity="0"/><stop offset="1" stop-color="#9b1316"/></linearGradient><linearGradient id="linear-gradient-3" x1="206.42" y1="120.02" x2="206.42" y2="103.37" gradientUnits="userSpaceOnUse"><stop offset="0" stop-color="#ed1b2e" stop-opacity="0"/><stop offset="1" stop-color="#5d0041"/></linearGradient></defs><g class="cls-1"><g id="Layer_1" data-name="Layer 1"><path class="cls-2" d="M204.27,138l-5-6.93h1.89a20.35,20.35,0,0,0,20.35-20.35h0a20.35,20.35,0,0,0-20.35-20.35h-24c-12.61,0-18.51-5.69-18.51-5.69a16,16,0,0,0,16,16h21.78c4.16,0,7.3.91,9.41,2.76a9.79,9.79,0,0,1,3.18,7.78,9.63,9.63,0,0,1-3.18,7.73q-3.16,2.7-9.41,2.71h-17.1l11.45,16.78c7.66,11.22,24.29,17.93,37.87,17.93A28.18,28.18,0,0,1,219,152,55.28,55.28,0,0,1,204.27,138Z"/><polygon class="cls-3" points="199.24 131.03 192.02 131.03 201.57 134.24 199.24 131.03"/><path class="cls-4" d="M221.46,110.35c-.3-5.51-5.22-9.73-10.94-9.73H196.09c4.32,0,7.67.88,9.75,2.85a9.7,9.7,0,0,1,3.06,7.66v0c0,3.35-.89,5.69-2.93,7.52s-5.24,2.92-9.56,2.92l-5.06.05h19.17c5.72,0,10.64-4.23,10.94-9.73,0-.26,0-.52,0-.79S221.47,110.6,221.46,110.35Z"/><path class="cls-5" d="M111.08,179.65a7.87,7.87,0,0,1,3.31.76,18.76,18.76,0,0,1,3.79,2.53l-3,7.37c-2.44-1.82-4.41-2.74-5.9-2.74a6.31,6.31,0,0,0-3.85,1.46,10.34,10.34,0,0,0-3,3.86,10.94,10.94,0,0,0-1.15,4.79v14.61H92.78v-32h8.43v8.16h.14a22.19,22.19,0,0,1,4.62-6.7A7.56,7.56,0,0,1,111.08,179.65Z"/><path class="cls-5" d="M136.59,179.65a19.67,19.67,0,0,1,9.08,2.09,15.24,15.24,0,0,1,6.31,5.87,16.49,16.49,0,0,1,2.22,8.53,17.17,17.17,0,0,1-2.14,8.71,15,15,0,0,1-6.31,5.89,20.5,20.5,0,0,1-18.32,0,15,15,0,0,1-6.25-5.89,17.18,17.18,0,0,1-2.15-8.71,16.33,16.33,0,0,1,2.27-8.59,15.35,15.35,0,0,1,6.3-5.82A19.45,19.45,0,0,1,136.59,179.65Zm-8.71,16.49a11.68,11.68,0,0,0,2.35,7.66,7.71,7.71,0,0,0,6.29,2.87,8.08,8.08,0,0,0,6.47-2.75q2.37-2.73,2.37-7.85,0-4.86-2.38-7.52a8.25,8.25,0,0,0-6.46-2.66,7.83,7.83,0,0,0-6.24,2.81A11.09,11.09,0,0,0,127.88,196.14Z"/><path class="cls-5" d="M169.39,164.4v17.93a14.21,14.21,0,0,1,8.47-2.68,14.6,14.6,0,0,1,7.66,2.08,14.09,14.09,0,0,1,5.35,5.82,18.42,18.42,0,0,1,1.9,8.39q0,7.88-4.7,12.42t-12.85,4.54A38.91,38.91,0,0,1,161,210.2V164.4Zm0,41.2a19.41,19.41,0,0,0,6.31.93,7.48,7.48,0,0,0,6.15-2.83q2.28-2.83,2.28-7.83a10.77,10.77,0,0,0-2.3-7.22,7.59,7.59,0,0,0-6.07-2.69,8,8,0,0,0-3.22.65,14.56,14.56,0,0,0-3.15,2Z"/><path class="cls-5" d="M213.81,179.65q7.06,0,11.18,4.53c2.74,3,4.11,7.19,4.11,12.51V198H206.44a9.89,9.89,0,0,0,3.21,6.6,11,11,0,0,0,7.39,2.31,16.63,16.63,0,0,0,5.81-1,25.52,25.52,0,0,0,5.77-3.18v6.28a23,23,0,0,1-13.64,4,17.25,17.25,0,0,1-12.38-4.56q-4.8-4.54-4.8-12.13a16.57,16.57,0,0,1,4.44-11.93A15.34,15.34,0,0,1,213.81,179.65Zm7.37,13.2a9.29,9.29,0,0,0-2.12-5.47,6.29,6.29,0,0,0-4.9-2A7,7,0,0,0,209,187.3a9.28,9.28,0,0,0-2.45,5.55Z"/><path class="cls-5" d="M254,179.65a7.87,7.87,0,0,1,3.31.76,18.76,18.76,0,0,1,3.79,2.53l-3,7.37c-2.44-1.82-4.41-2.74-5.89-2.74a6.32,6.32,0,0,0-3.86,1.46,10.34,10.34,0,0,0-3,3.86,10.94,10.94,0,0,0-1.15,4.79v14.61h-8.43v-32h8.43v8.16h.14a22.19,22.19,0,0,1,4.62-6.7A7.56,7.56,0,0,1,254,179.65Z"/><path class="cls-5" d="M276.58,179.65q6.17,0,9.42,2.63a8.85,8.85,0,0,1,3.26,7.31v15.67c0,1.21.49,1.82,1.47,1.82a4.5,4.5,0,0,0,1.73-.53,7.56,7.56,0,0,0,1.87-1.22v4.87a15.81,15.81,0,0,1-8.09,2.7,6.69,6.69,0,0,1-3.48-.75,4.13,4.13,0,0,1-1.69-2.67,16.71,16.71,0,0,1-9.7,3.42,8.37,8.37,0,0,1-5.95-2.33,7.37,7.37,0,0,1-2.49-5.58,8.73,8.73,0,0,1,2.47-6.55q2.48-2.4,8.64-4.18l6.82-2v-1.48q0-4.69-5.69-4.69a13.65,13.65,0,0,0-5.79,1.33,16.58,16.58,0,0,0-5.25,3.95V183.8A19.51,19.51,0,0,1,276.58,179.65Zm-5.15,24.07a3.73,3.73,0,0,0,1.12,2.81,3.83,3.83,0,0,0,2.76,1.06,8.27,8.27,0,0,0,5.55-2.54v-8.43a40,40,0,0,0-5.53,2.26,10.18,10.18,0,0,0-2.95,2.16A4,4,0,0,0,271.43,203.72Z"/><path class="cls-6" d="M129.36,223.46h3.56a5.26,5.26,0,0,1,3.42,1,3.22,3.22,0,0,1,1.19,2.62,3.47,3.47,0,0,1-2.65,3.38,6.21,6.21,0,0,1,1.85,2.12l3.15,4.81H138.6l-2.42-3.81a9.27,9.27,0,0,0-1.89-2.38,3.4,3.4,0,0,0-2-.48h-1.88v6.67h-1.07Zm1.07.89v5.45h2.31a4.38,4.38,0,0,0,2.69-.71,2.4,2.4,0,0,0,.93-2,2.37,2.37,0,0,0-.94-2,4.43,4.43,0,0,0-2.72-.72Z"/><path class="cls-6" d="M148.49,232.44h-7.21a3.87,3.87,0,0,0,0,.48,3.49,3.49,0,0,0,1.09,2.6,3.6,3.6,0,0,0,2.59,1.06,5.3,5.3,0,0,0,3.4-1.36v1.11a5.59,5.59,0,0,1-3.52,1.21,4.31,4.31,0,0,1-3.27-1.37,4.88,4.88,0,0,1-1.3-3.5,4.76,4.76,0,0,1,1.2-3.33,3.9,3.9,0,0,1,3-1.31,3.86,3.86,0,0,1,2.88,1.19A4.39,4.39,0,0,1,148.49,232.44Zm-7.08-.78h5.93c-.35-1.79-1.31-2.68-2.9-2.68a2.93,2.93,0,0,0-1.94.7A3.44,3.44,0,0,0,141.41,231.66Z"/><path class="cls-6" d="M154.79,232.29v1H150v-1Z"/><path class="cls-6" d="M164.72,223.46v13.9h-1v-.72a4.57,4.57,0,0,1-2.71.9,4.4,4.4,0,0,1-3.29-1.38,5,5,0,0,1,0-6.78A4.43,4.43,0,0,1,161,228a6,6,0,0,1,2.71.73v-5.3Zm-1,12.29v-5.91a4.88,4.88,0,0,0-2.67-.86,3.51,3.51,0,0,0-2.61,1.05,3.7,3.7,0,0,0-1,2.68,3.78,3.78,0,0,0,1.09,2.77,3.69,3.69,0,0,0,2.74,1.1A4.24,4.24,0,0,0,163.74,235.75Z"/><path class="cls-6" d="M175,232.44h-7.21a3.87,3.87,0,0,0,0,.48,3.49,3.49,0,0,0,1.09,2.6,3.6,3.6,0,0,0,2.59,1.06,5.3,5.3,0,0,0,3.4-1.36v1.11a5.61,5.61,0,0,1-3.52,1.21,4.31,4.31,0,0,1-3.27-1.37,4.88,4.88,0,0,1-1.3-3.5,4.76,4.76,0,0,1,1.2-3.33,4.09,4.09,0,0,1,5.88-.12A4.39,4.39,0,0,1,175,232.44Zm-7.08-.78h5.93c-.35-1.79-1.31-2.68-2.9-2.68a2.91,2.91,0,0,0-1.94.7A3.44,3.44,0,0,0,167.94,231.66Z"/><path class="cls-6" d="M182.49,223.67v.91a5.19,5.19,0,0,0-1.66-.34c-1.48,0-2.21.94-2.21,2.83v1.14h1.77V229h-1.77v8.36h-1V229H176v-.79h1.69V226.7a3.39,3.39,0,0,1,.92-2.5,3.06,3.06,0,0,1,2.25-.92A4.48,4.48,0,0,1,182.49,223.67Z"/><path class="cls-6" d="M182.62,223.46v1.67h-1v-1.67Zm0,4.75v9.15h-1v-9.15Z"/><path class="cls-6" d="M186.28,228.21v1.59h0a3.44,3.44,0,0,1,3-1.77,3.23,3.23,0,0,1,2.48,1,3.89,3.89,0,0,1,.93,2.76v5.58h-1v-5.21c0-2.11-.83-3.17-2.49-3.17a3.45,3.45,0,0,0-3,2v6.42h-1v-9.15Z"/><path class="cls-6" d="M203.09,232.44h-7.21a3.87,3.87,0,0,0,0,.48,3.49,3.49,0,0,0,1.09,2.6,3.6,3.6,0,0,0,2.59,1.06,5.35,5.35,0,0,0,3.41-1.36v1.11a5.64,5.64,0,0,1-3.53,1.21,4.31,4.31,0,0,1-3.27-1.37,4.91,4.91,0,0,1-1.29-3.5,4.76,4.76,0,0,1,1.19-3.33,3.91,3.91,0,0,1,3-1.31,3.86,3.86,0,0,1,2.88,1.19A4.39,4.39,0,0,1,203.09,232.44Zm-7.08-.78h5.93c-.35-1.79-1.31-2.68-2.9-2.68a2.93,2.93,0,0,0-1.94.7A3.44,3.44,0,0,0,196,231.66Z"/><path class="cls-6" d="M211.86,223.46v13.9h-1v-13.9Z"/><path class="cls-6" d="M215.69,223.46v1.67h-1v-1.67Zm0,4.75v9.15h-1v-9.15Z"/><path class="cls-6" d="M223.88,223.67v.91a5.14,5.14,0,0,0-1.65-.34c-1.48,0-2.22.94-2.22,2.83v1.14h1.77V229H220v8.36h-1V229h-1.7v-.79H219V226.7a3.35,3.35,0,0,1,.92-2.5,3.06,3.06,0,0,1,2.25-.92A4.48,4.48,0,0,1,223.88,223.67Z"/><path class="cls-6" d="M230.77,232.44h-7.22a3.87,3.87,0,0,0,0,.48,3.5,3.5,0,0,0,1.1,2.6,3.58,3.58,0,0,0,2.59,1.06,5.32,5.32,0,0,0,3.4-1.36v1.11a5.61,5.61,0,0,1-3.52,1.21,4.33,4.33,0,0,1-3.28-1.37,4.91,4.91,0,0,1-1.29-3.5,4.8,4.8,0,0,1,1.19-3.33,3.92,3.92,0,0,1,3-1.31,3.85,3.85,0,0,1,2.87,1.19A4.36,4.36,0,0,1,230.77,232.44Zm-7.09-.78h5.93c-.34-1.79-1.31-2.68-2.89-2.68a3,3,0,0,0-1.95.7A3.5,3.5,0,0,0,223.68,231.66Z"/><path class="cls-6" d="M237.76,228.8v1.06a4.59,4.59,0,0,0-2.5-.94,2.18,2.18,0,0,0-1.4.45,1.34,1.34,0,0,0-.56,1.1,1.27,1.27,0,0,0,.34.86,5.71,5.71,0,0,0,1.9,1,4.55,4.55,0,0,1,2,1.25,2.35,2.35,0,0,1,.48,1.44,2.29,2.29,0,0,1-.86,1.8,3.19,3.19,0,0,1-2.14.73,5.19,5.19,0,0,1-2.75-.84v-.95a6.38,6.38,0,0,0,2.88.83,2.13,2.13,0,0,0,1.38-.44,1.41,1.41,0,0,0,.55-1.15,1.29,1.29,0,0,0-.36-.88,5.67,5.67,0,0,0-1.91-1,4.91,4.91,0,0,1-2-1.22,2.12,2.12,0,0,1-.46-1.34,2.26,2.26,0,0,1,.86-1.77,3.11,3.11,0,0,1,2.1-.73A5,5,0,0,1,237.76,228.8Z"/><path class="cls-6" d="M241.73,225.17v3h2.57V229h-2.57v5.44a4.25,4.25,0,0,0,.22,1.73c.14.28.52.41,1.15.41a4.19,4.19,0,0,0,1.67-.44v.93a4.35,4.35,0,0,1-1.89.47,2.2,2.2,0,0,1-1.51-.52,1.76,1.76,0,0,1-.61-1.43V229h-2.47v-.79h2.47V226l.67-.86Z"/><path class="cls-6" d="M253.46,228.21l-6.86,13.84h-1l3.21-6.47L245,228.21h1l3.32,6.39,3.17-6.39Z"/><path class="cls-6" d="M255.73,223.46v13.9h-1v-13.9Z"/><path class="cls-6" d="M266.22,232.44H259a3.87,3.87,0,0,0,0,.48,3.49,3.49,0,0,0,1.09,2.6,3.6,3.6,0,0,0,2.59,1.06,5.3,5.3,0,0,0,3.4-1.36v1.11a5.59,5.59,0,0,1-3.52,1.21,4.31,4.31,0,0,1-3.27-1.37,4.88,4.88,0,0,1-1.3-3.5,4.76,4.76,0,0,1,1.2-3.33,3.9,3.9,0,0,1,3-1.31,3.86,3.86,0,0,1,2.88,1.19A4.39,4.39,0,0,1,266.22,232.44Zm-7.08-.78h5.93c-.35-1.79-1.31-2.68-2.9-2.68a2.93,2.93,0,0,0-1.94.7A3.44,3.44,0,0,0,259.14,231.66Z"/><path class="cls-6" d="M270,235.38v2h-1.32v-2Z"/><path class="cls-5" d="M299.37,175.68v.45h-2.61v6.5h-.54v-6.5h-2.61v-.45Z"/><path class="cls-5" d="M303.39,178.91l2.64-3.23h.55v6.95H306v-6.16l-2.64,3.25-2.66-3.25v6.16h-.53v-6.95h.53Z"/></g></g></svg>