<svg xmlns="http://www.w3.org/2000/svg" xmlns:xlink="http://www.w3.org/1999/xlink" viewBox="0 0 399.35 326.69"><defs><style>.cls-1{isolation:isolate;}.cls-2{fill:url(#linear-gradient);}.cls-3,.cls-4{mix-blend-mode:multiply;}.cls-3{fill:url(#linear-gradient-2);}.cls-4{fill:url(#linear-gradient-3);}.cls-5{fill:#231f20;}.cls-6{fill:#414042;}.cls-7{fill:#606161;}</style><linearGradient id="linear-gradient" x1="82.11" y1="155.92" x2="137.04" y2="155.92" gradientUnits="userSpaceOnUse"><stop offset="0" stop-color="#f05330"/><stop offset="1" stop-color="#a22a59"/></linearGradient><linearGradient id="linear-gradient-2" x1="100.7" y1="165.47" x2="100.75" y2="165.47" gradientUnits="userSpaceOnUse"><stop offset="0" stop-color="#6a3c00" stop-opacity="0"/><stop offset="1" stop-color="#9b1316"/></linearGradient><linearGradient id="linear-gradient-3" x1="119.67" y1="155.56" x2="119.67" y2="142.49" gradientUnits="userSpaceOnUse"><stop offset="0" stop-color="#ed1b2e" stop-opacity="0"/><stop offset="1" stop-color="#5d0041"/></linearGradient></defs><g class="cls-1"><g id="Layer_1" data-name="Layer 1"><path class="cls-2" d="M118,169.65,114,164.21h1.49a16,16,0,0,0,16-16h0a16,16,0,0,0-16-16H96.64c-9.9,0-14.53-4.47-14.53-4.47a12.56,12.56,0,0,0,12.54,12.54h17.09c3.27,0,5.73.72,7.4,2.17a7.66,7.66,0,0,1,2.49,6.11,7.52,7.52,0,0,1-2.49,6.06c-1.67,1.42-4.13,2.14-7.4,2.14H98.32l9,13.17c6,8.8,19.07,14.07,29.73,14.07a22.08,22.08,0,0,1-7.49-3.35A43.26,43.26,0,0,1,118,169.65Z"/><polygon class="cls-3" points="114.04 164.21 108.37 164.21 115.87 166.72 114.04 164.21"/><path class="cls-4" d="M131.48,148a8.39,8.39,0,0,0-8.58-7.64H111.56c3.39,0,6,.69,7.66,2.24a7.59,7.59,0,0,1,2.4,6v0a7.3,7.3,0,0,1-2.3,5.91c-1.66,1.49-4.11,2.29-7.5,2.29l-4,0H122.9a8.39,8.39,0,0,0,8.58-7.64c0-.2,0-.4,0-.62S131.5,148.17,131.48,148Z"/><path class="cls-5" d="M163.76,148.86a6,6,0,0,1,2.6.59,14.43,14.43,0,0,1,3,2L167,157.23q-2.88-2.16-4.63-2.16a4.89,4.89,0,0,0-3,1.15,8.14,8.14,0,0,0-2.4,3A8.72,8.72,0,0,0,156,163v11.47h-6.62V149.34H156v6.41h.11a17.44,17.44,0,0,1,3.63-5.27A5.93,5.93,0,0,1,163.76,148.86Z"/><path class="cls-5" d="M183.78,148.86a15.31,15.31,0,0,1,7.13,1.64,11.93,11.93,0,0,1,5,4.6,13,13,0,0,1,1.75,6.7,13.55,13.55,0,0,1-1.69,6.84,11.8,11.8,0,0,1-5,4.62,15.29,15.29,0,0,1-7.2,1.7,15.1,15.1,0,0,1-7.18-1.7,11.81,11.81,0,0,1-4.91-4.62A13.45,13.45,0,0,1,170,161.8a12.82,12.82,0,0,1,1.78-6.74,12,12,0,0,1,4.95-4.58A15.3,15.3,0,0,1,183.78,148.86ZM177,161.8a9.21,9.21,0,0,0,1.84,6,6.09,6.09,0,0,0,4.94,2.24,6.39,6.39,0,0,0,5.09-2.15,9.21,9.21,0,0,0,1.85-6.16,8.54,8.54,0,0,0-1.87-5.91,6.47,6.47,0,0,0-5.07-2.09,6.15,6.15,0,0,0-4.9,2.21A8.72,8.72,0,0,0,177,161.8Z"/><path class="cls-5" d="M209.54,136.88V151a11.18,11.18,0,0,1,6.64-2.09,11.48,11.48,0,0,1,6,1.62,11.09,11.09,0,0,1,4.2,4.58,14.41,14.41,0,0,1,1.49,6.58q0,6.2-3.69,9.75T214.11,175a30.39,30.39,0,0,1-11.19-2.13v-36Zm0,32.35a15.42,15.42,0,0,0,5,.72,5.87,5.87,0,0,0,4.83-2.22,9.55,9.55,0,0,0,1.79-6.14,8.46,8.46,0,0,0-1.8-5.67,6,6,0,0,0-4.77-2.11,6.25,6.25,0,0,0-2.53.51,11,11,0,0,0-2.47,1.59Z"/><path class="cls-5" d="M244.42,148.86a11.26,11.26,0,0,1,8.77,3.55q3.23,3.56,3.23,9.82v1H238.63a7.79,7.79,0,0,0,2.51,5.18,8.63,8.63,0,0,0,5.8,1.81,12.92,12.92,0,0,0,4.57-.82,19.39,19.39,0,0,0,4.53-2.49v4.93A18.07,18.07,0,0,1,245.33,175a13.53,13.53,0,0,1-9.72-3.58,12.53,12.53,0,0,1-3.76-9.53,13,13,0,0,1,3.48-9.36A12,12,0,0,1,244.42,148.86Zm5.78,10.36a7.28,7.28,0,0,0-1.67-4.3,4.92,4.92,0,0,0-3.85-1.54,5.51,5.51,0,0,0-4,1.48,7.31,7.31,0,0,0-1.92,4.36Z"/><path class="cls-5" d="M276,148.86a6,6,0,0,1,2.6.59,14.43,14.43,0,0,1,3,2l-2.36,5.79c-1.92-1.44-3.47-2.16-4.63-2.16a4.89,4.89,0,0,0-3,1.15,8.14,8.14,0,0,0-2.4,3,8.72,8.72,0,0,0-.9,3.77v11.47h-6.62V149.34h6.62v6.41h.11a17.44,17.44,0,0,1,3.63-5.27A5.93,5.93,0,0,1,276,148.86Z"/><path class="cls-5" d="M293.69,148.86q4.85,0,7.4,2a7,7,0,0,1,2.56,5.75V169c0,.95.38,1.42,1.16,1.42a3.38,3.38,0,0,0,1.35-.41,5.84,5.84,0,0,0,1.47-1v3.82a12.36,12.36,0,0,1-6.35,2.13,5.25,5.25,0,0,1-2.73-.59,3.26,3.26,0,0,1-1.33-2.1A13.13,13.13,0,0,1,289.6,175a6.59,6.59,0,0,1-4.67-1.83,5.8,5.8,0,0,1-1.95-4.39,6.85,6.85,0,0,1,1.94-5.14c1.29-1.25,3.55-2.35,6.78-3.28l5.36-1.56V157.6c0-2.46-1.49-3.68-4.47-3.68a10.7,10.7,0,0,0-4.55,1,13,13,0,0,0-4.12,3.1v-5.95A15.28,15.28,0,0,1,293.69,148.86Zm-4,18.89a2.91,2.91,0,0,0,.88,2.2,3,3,0,0,0,2.16.84,6.53,6.53,0,0,0,4.37-2v-6.62a31.88,31.88,0,0,0-4.35,1.77,8,8,0,0,0-2.32,1.7A3.11,3.11,0,0,0,289.65,167.75Z"/><path class="cls-6" d="M149.39,184.31h2.8a4.12,4.12,0,0,1,2.68.76,2.52,2.52,0,0,1,.93,2.06,2.72,2.72,0,0,1-2.07,2.65,5.12,5.12,0,0,1,1.45,1.67l2.47,3.77h-1l-1.9-3a7.29,7.29,0,0,0-1.49-1.87,2.67,2.67,0,0,0-1.55-.37h-1.48v5.23h-.84Zm.84.7v4.27h1.82a3.45,3.45,0,0,0,2.11-.55,2.07,2.07,0,0,0,0-3.16A3.54,3.54,0,0,0,152,185Z"/><path class="cls-6" d="M164.41,191.36h-5.66a2.42,2.42,0,0,0,0,.38,2.75,2.75,0,0,0,.85,2,2.86,2.86,0,0,0,2,.83,4.15,4.15,0,0,0,2.67-1.07v.87a4.41,4.41,0,0,1-2.77,1,3.39,3.39,0,0,1-2.57-1.08,3.8,3.8,0,0,1-1-2.74,3.76,3.76,0,0,1,.93-2.61,3.19,3.19,0,0,1,4.62-.1A3.42,3.42,0,0,1,164.41,191.36Zm-5.56-.61h4.66c-.27-1.41-1-2.11-2.28-2.11a2.29,2.29,0,0,0-1.52.55A2.72,2.72,0,0,0,158.85,190.75Z"/><path class="cls-6" d="M169.36,191.24V192h-3.79v-.75Z"/><path class="cls-6" d="M177.16,184.31v10.91h-.78v-.56a3.55,3.55,0,0,1-2.12.7,3.48,3.48,0,0,1-2.59-1.08,3.91,3.91,0,0,1,0-5.32,3.47,3.47,0,0,1,2.6-1.07,4.74,4.74,0,0,1,2.12.58v-4.16Zm-.78,9.65v-4.64a3.78,3.78,0,0,0-2.09-.68,2.75,2.75,0,0,0-2,.83,2.87,2.87,0,0,0-.8,2.1,3,3,0,0,0,.86,2.18,2.9,2.9,0,0,0,2.14.86A3.37,3.37,0,0,0,176.38,194Z"/><path class="cls-6" d="M185.24,191.36h-5.66a2.43,2.43,0,0,0,0,.38,2.76,2.76,0,0,0,.86,2,2.85,2.85,0,0,0,2,.83,4.16,4.16,0,0,0,2.68-1.07v.87a4.41,4.41,0,0,1-2.77,1,3.37,3.37,0,0,1-2.57-1.08,3.81,3.81,0,0,1-1-2.74,3.77,3.77,0,0,1,.94-2.61,3.19,3.19,0,0,1,4.62-.1A3.46,3.46,0,0,1,185.24,191.36Zm-5.56-.61h4.65c-.27-1.41-1-2.11-2.27-2.11a2.32,2.32,0,0,0-1.53.55A2.71,2.71,0,0,0,179.68,190.75Z"/><path class="cls-6" d="M191.1,184.47v.72a4.12,4.12,0,0,0-1.3-.27q-1.74,0-1.74,2.22V188h1.39v.63h-1.39v6.56h-.76v-6.56H186V188h1.33v-1.18a2.66,2.66,0,0,1,.72-2,2.41,2.41,0,0,1,1.77-.72A3.54,3.54,0,0,1,191.1,184.47Z"/><path class="cls-6" d="M191.2,184.31v1.31h-.77v-1.31Zm0,3.72v7.19h-.77V188Z"/><path class="cls-6" d="M194.08,188v1.25h0a2.73,2.73,0,0,1,2.37-1.39,2.49,2.49,0,0,1,1.94.79,3,3,0,0,1,.73,2.16v4.38h-.77v-4.09q0-2.49-1.95-2.49a2.71,2.71,0,0,0-2.35,1.54v5h-.77V188Z"/><path class="cls-6" d="M207.28,191.36h-5.66a2.43,2.43,0,0,0,0,.38,2.76,2.76,0,0,0,.86,2,2.83,2.83,0,0,0,2,.83,4.18,4.18,0,0,0,2.68-1.07v.87a4.41,4.41,0,0,1-2.77,1,3.37,3.37,0,0,1-2.57-1.08,3.81,3.81,0,0,1-1-2.74,3.77,3.77,0,0,1,.94-2.61,3.19,3.19,0,0,1,4.62-.1A3.46,3.46,0,0,1,207.28,191.36Zm-5.56-.61h4.65c-.27-1.41-1-2.11-2.27-2.11a2.32,2.32,0,0,0-1.53.55A2.71,2.71,0,0,0,201.72,190.75Z"/><path class="cls-6" d="M214.16,184.31v10.91h-.77V184.31Z"/><path class="cls-6" d="M217.17,184.31v1.31h-.77v-1.31Zm0,3.72v7.19h-.77V188Z"/><path class="cls-6" d="M223.6,184.47v.72a4.12,4.12,0,0,0-1.3-.27q-1.74,0-1.74,2.22V188H222v.63h-1.39v6.56h-.76v-6.56h-1.33V188h1.33v-1.18a2.66,2.66,0,0,1,.72-2,2.41,2.41,0,0,1,1.77-.72A3.54,3.54,0,0,1,223.6,184.47Z"/><path class="cls-6" d="M229,191.36h-5.67c0,.13,0,.25,0,.38a2.76,2.76,0,0,0,.86,2,2.83,2.83,0,0,0,2,.83,4.15,4.15,0,0,0,2.67-1.07v.87a4.36,4.36,0,0,1-2.76,1,3.36,3.36,0,0,1-2.57-1.08,3.81,3.81,0,0,1-1-2.74,3.72,3.72,0,0,1,.94-2.61,3.18,3.18,0,0,1,4.61-.1A3.43,3.43,0,0,1,229,191.36Zm-5.57-.61h4.66c-.27-1.41-1-2.11-2.27-2.11a2.32,2.32,0,0,0-1.53.55A2.72,2.72,0,0,0,223.44,190.75Z"/><path class="cls-6" d="M234.5,188.5v.83a3.65,3.65,0,0,0-2-.73,1.66,1.66,0,0,0-1.09.35,1,1,0,0,0-.45.86,1,1,0,0,0,.27.68,4.73,4.73,0,0,0,1.49.78,3.57,3.57,0,0,1,1.6,1,1.83,1.83,0,0,1,.38,1.13,1.78,1.78,0,0,1-.68,1.41,2.55,2.55,0,0,1-1.68.57,4.14,4.14,0,0,1-2.16-.65V194a5.13,5.13,0,0,0,2.26.65,1.64,1.64,0,0,0,1.09-.35,1.11,1.11,0,0,0,.42-.9,1,1,0,0,0-.27-.69,4.64,4.64,0,0,0-1.5-.8,3.74,3.74,0,0,1-1.59-1,1.67,1.67,0,0,1-.36-1,1.76,1.76,0,0,1,.67-1.39,2.48,2.48,0,0,1,1.65-.58A3.93,3.93,0,0,1,234.5,188.5Z"/><path class="cls-6" d="M237.62,185.65V188h2v.63h-2v4.27a3.61,3.61,0,0,0,.16,1.36c.12.21.42.32.91.32a3.1,3.1,0,0,0,1.31-.35V195a3.46,3.46,0,0,1-1.49.36,1.74,1.74,0,0,1-1.18-.4,1.4,1.4,0,0,1-.48-1.13v-5.17h-1.94V188h1.94v-1.71l.52-.67Z"/><path class="cls-6" d="M246.82,188l-5.38,10.87h-.78l2.51-5.07-3-5.8h.8l2.61,5,2.49-5Z"/><path class="cls-6" d="M248.61,184.31v10.91h-.78V184.31Z"/><path class="cls-6" d="M256.84,191.36h-5.66a2.42,2.42,0,0,0,0,.38,2.75,2.75,0,0,0,.85,2,2.86,2.86,0,0,0,2,.83,4.15,4.15,0,0,0,2.67-1.07v.87a4.41,4.41,0,0,1-2.77,1,3.37,3.37,0,0,1-2.57-1.08,3.8,3.8,0,0,1-1-2.74,3.76,3.76,0,0,1,.93-2.61,3.19,3.19,0,0,1,4.62-.1A3.42,3.42,0,0,1,256.84,191.36Zm-5.56-.61h4.66c-.28-1.41-1-2.11-2.28-2.11a2.29,2.29,0,0,0-1.52.55A2.72,2.72,0,0,0,251.28,190.75Z"/><path class="cls-6" d="M259.8,193.67v1.55h-1v-1.55Z"/><path class="cls-7" d="M311.58,148.8v.35h-2v5.1h-.43v-5.1h-2.05v-.35Z"/><path class="cls-7" d="M314.74,151.33l2.08-2.53h.42v5.45h-.42v-4.84L314.74,152l-2.08-2.56v4.84h-.43V148.8h.43Z"/></g></g></svg>